<svg xmlns="http://www.w3.org/2000/svg" width="218" height="54" viewBox="0 0 218 54" class="editor-view__logo-preview" data-v-8d8ae3dd="" data-v-b0ffd048=""><svg id="mark" viewBox="0 0 32 32" width="54" height="54" x="0" y="0" data-v-8d8ae3dd="" style="fill: rgb(0, 0, 0);"><rect x="0" y="0" width="100%" height="100%" fill="none" data-v-8d8ae3dd=""></rect><g data-v-8d8ae3dd=""><g xmlns="http://www.w3.org/2000/svg"><g><polygon points="9.382,8.675 23.325,8.675 23.325,22.618 32,31.293 32,0 0.707,0   "></polygon><polygon points="22.618,23.325 8.675,23.325 8.675,9.382 0,0.707 0,32 31.293,32   "></polygon></g></g></g></svg><svg id="name" viewBox="0 0 148.6015625 34.3876953125" width="148" height="34.24848851269649" x="70" y="9.875755743651755" data-v-8d8ae3dd="" style="fill: rgb(0, 0, 0);"><rect x="0" y="0" width="100%" height="100%" fill="none" data-v-8d8ae3dd=""></rect><g data-v-8d8ae3dd=""><path xmlns="http://www.w3.org/2000/svg" d="M0 1.24L8.80 1.24L17.21 24.95L25.56 1.24L34.41 1.24L34.41 33.94L27.65 33.94L27.65 25.00L28.32 9.57L19.50 33.94L14.87 33.94L6.06 9.59L6.74 25.00L6.74 33.94L0 33.94L0 1.24ZM51.05 34.39L51.05 34.39Q45.71 34.39 42.35 31.11Q38.99 27.83 38.99 22.37L38.99 22.37L38.99 21.74Q38.99 18.08 40.41 15.19Q41.82 12.31 44.42 10.75Q47.01 9.19 50.33 9.19L50.33 9.19Q55.32 9.19 58.19 12.33Q61.05 15.48 61.05 21.25L61.05 21.25L61.05 23.90L45.57 23.90Q45.89 26.28 47.47 27.72Q49.05 29.15 51.48 29.15L51.48 29.15Q55.23 29.15 57.34 26.44L57.34 26.44L60.53 30.01Q59.07 32.07 56.58 33.23Q54.09 34.39 51.05 34.39ZM50.31 14.44L50.31 14.44Q48.38 14.44 47.18 15.75Q45.98 17.05 45.64 19.47L45.64 19.47L54.67 19.47L54.67 18.96Q54.63 16.80 53.50 15.62Q52.38 14.44 50.31 14.44ZM75.92 34.39L75.92 34.39Q70.57 34.39 67.21 31.11Q63.86 27.83 63.86 22.37L63.86 22.37L63.86 21.74Q63.86 18.08 65.27 15.19Q66.69 12.31 69.28 10.75Q71.88 9.19 75.20 9.19L75.20 9.19Q80.19 9.19 83.05 12.33Q85.91 15.48 85.91 21.25L85.91 21.25L85.91 23.90L70.44 23.90Q70.75 26.28 72.34 27.72Q73.92 29.15 76.34 29.15L76.34 29.15Q80.10 29.15 82.21 26.44L82.21 26.44L85.40 30.01Q83.94 32.07 81.44 33.23Q78.95 34.39 75.92 34.39ZM75.18 14.44L75.18 14.44Q73.25 14.44 72.04 15.75Q70.84 17.05 70.50 19.47L70.50 19.47L79.53 19.47L79.53 18.96Q79.49 16.80 78.37 15.62Q77.24 14.44 75.18 14.44ZM89.46 9.64L95.57 9.64L95.77 12.44Q98.38 9.19 102.76 9.19L102.76 9.19Q106.62 9.19 108.51 11.46Q110.40 13.72 110.44 18.24L110.44 18.24L110.44 33.94L103.95 33.94L103.95 18.40Q103.95 16.33 103.05 15.40Q102.15 14.46 100.06 14.46L100.06 14.46Q97.32 14.46 95.95 16.80L95.95 16.80L95.95 33.94L89.46 33.94L89.46 9.64ZM114.35 21.85L114.35 21.56Q114.35 17.95 115.74 15.12Q117.13 12.29 119.75 10.74Q122.37 9.19 125.83 9.19L125.83 9.19Q130.75 9.19 133.86 12.20Q136.97 15.21 137.33 20.37L137.33 20.37L137.37 22.03Q137.37 27.63 134.25 31.01Q131.13 34.39 125.87 34.39Q120.62 34.39 117.48 31.02Q114.35 27.65 114.35 21.85L114.35 21.85ZM120.84 22.03L120.84 22.03Q120.84 25.49 122.14 27.32Q123.45 29.15 125.87 29.15L125.87 29.15Q128.23 29.15 129.55 27.35Q130.88 25.54 130.88 21.56L130.88 21.56Q130.88 18.17 129.55 16.31Q128.23 14.44 125.83 14.44L125.83 14.44Q123.45 14.44 122.14 16.30Q120.84 18.15 120.84 22.03ZM148.22 9.64L148.22 33.94L141.71 33.94L141.71 9.64L148.22 9.64ZM141.32 3.35L141.32 3.35Q141.32 1.89 142.30 0.94Q143.28 0 144.96 0L144.96 0Q146.63 0 147.61 0.94Q148.60 1.89 148.60 3.35L148.60 3.35Q148.60 4.83 147.60 5.77Q146.60 6.72 144.96 6.72Q143.32 6.72 142.32 5.77Q141.32 4.83 141.32 3.35Z"></path></g></svg><!----></svg>