<svg xmlns="http://www.w3.org/2000/svg" width="138" height="96.75687924894788" viewBox="0 0 138 96.75687924894788" class="editor-view__logo-preview" data-v-8d8ae3dd="" data-v-b0ffd048=""><svg id="mark" viewBox="0 0 100 100" width="54" height="54" x="42" y="0" data-v-8d8ae3dd="" style="fill: rgb(112, 38, 38);"><rect x="0" y="0" width="100%" height="100%" fill="none" data-v-8d8ae3dd=""></rect><g data-v-8d8ae3dd=""><g xmlns="http://www.w3.org/2000/svg"><path d="M75.933,56.285l1.126-0.206c0.814-0.149,1.354-0.931,1.205-1.746s-0.928-1.352-1.746-1.205l-0.585,0.107v-1.714   c0-1.362-0.509-2.605-1.341-3.558l0.959-1.074c0.553-0.618,0.499-1.566-0.119-2.118s-1.566-0.498-2.117,0.119l-1.279,1.432   c-0.408-0.12-0.836-0.189-1.277-0.209v-1.651c0-0.829-0.672-1.5-1.5-1.5s-1.5,0.671-1.5,1.5v2.4   c-1.592,0.945-2.665,2.677-2.665,4.659v1.152h-0.919c-0.828,0-1.5,0.672-1.5,1.5s0.672,1.5,1.5,1.5h0.919v0.902H61.87v-16.72   c0-1.712-0.499-3.307-1.348-4.66l1.13-1.253c0.555-0.615,0.506-1.564-0.11-2.119c-0.613-0.553-1.563-0.507-2.118,0.11l-0.914,1.014   c-0.798-0.63-1.704-1.125-2.689-1.451l0.188-1.153c0.133-0.818-0.422-1.588-1.24-1.721c-0.815-0.136-1.589,0.422-1.721,1.24   l-0.194,1.197c-1.437,0.034-2.792,0.406-3.979,1.052l-1.04-1.287c-0.521-0.645-1.465-0.745-2.109-0.225   c-0.645,0.521-0.745,1.465-0.225,2.109l1.024,1.269c-1.086,1.207-1.842,2.711-2.129,4.378h-0.934c-0.828,0-1.5,0.671-1.5,1.5   s0.672,1.5,1.5,1.5h0.796v15.22h-3.502v-0.47l1.498-0.514c0.784-0.269,1.201-1.122,0.933-1.905   c-0.27-0.784-1.122-1.205-1.905-0.933l-0.525,0.181v-1.414c0-1.466-0.587-2.796-1.536-3.772l0.644-1.103   c0.417-0.715,0.176-1.634-0.54-2.052c-0.713-0.417-1.634-0.176-2.051,0.539l-0.657,1.126c-0.411-0.1-0.838-0.159-1.279-0.159   c-1.661,0-3.147,0.752-4.143,1.933l-0.797-0.566c-0.675-0.48-1.61-0.322-2.092,0.354c-0.479,0.675-0.321,1.612,0.354,2.092   l1.306,0.928c-0.028,0.224-0.048,0.45-0.048,0.681v4.275h-1.518c-0.828,0-1.5,0.672-1.5,1.5s0.672,1.5,1.5,1.5h1.518v3.2   c0,1.058,0.318,2.085,0.896,2.961l-1.252,0.959c-0.658,0.504-0.782,1.445-0.278,2.103c0.295,0.386,0.741,0.588,1.191,0.588   c0.318,0,0.64-0.101,0.911-0.31l1.76-1.349c0.031,0.015,0.056,0.031,0.09,0.046c0.252,0.104,0.514,0.18,0.725,0.23   c0.062,0.021,0.216,0.067,0.28,0.08c0.352,0.074,0.721,0.111,1.098,0.111h3.676v0.88c0,0.828,0.672,1.5,1.5,1.5s1.5-0.672,1.5-1.5   v-0.88h2.246v4.337h-0.796c-0.828,0-1.5,0.672-1.5,1.5s0.672,1.5,1.5,1.5h0.796v4.063h-0.796c-0.828,0-1.5,0.672-1.5,1.5   s0.672,1.5,1.5,1.5h0.796v3.245H31.222c-0.828,0-1.5,0.672-1.5,1.5s0.672,1.5,1.5,1.5h14.535H60.37h16.418   c0.828,0,1.5-0.672,1.5-1.5s-0.672-1.5-1.5-1.5H61.87V67.417h8.644c0.378,0,0.748-0.037,1.112-0.114   c0.089-0.02,0.176-0.046,0.211-0.062c0.267-0.067,0.532-0.143,0.797-0.254c0.106-0.046,0.208-0.101,0.319-0.168   c0.019-0.008,0.125-0.062,0.143-0.072c0.155-0.078,0.308-0.16,0.434-0.246c0.085-0.055,0.162-0.117,0.181-0.14   c0.344-0.253,0.652-0.543,0.924-0.861l1.346,0.861c0.251,0.16,0.53,0.236,0.808,0.236c0.494,0,0.979-0.244,1.265-0.691   c0.446-0.698,0.242-1.626-0.455-2.072l-1.721-1.101c0.034-0.243,0.057-0.487,0.057-0.735V56.285z M47.257,85.062v-4.745v-14.4   c0-0.828-0.672-1.5-1.5-1.5h-5.246h-5.176c-0.149,0-0.293-0.013-0.428-0.036c-0.054-0.018-0.132-0.041-0.165-0.05   c-0.123-0.031-0.244-0.06-0.324-0.095c-0.072-0.043-0.146-0.084-0.175-0.097l-0.139-0.071c-0.03-0.015-0.061-0.029-0.097-0.05   c-0.036-0.029-0.074-0.06-0.096-0.075c-0.634-0.467-0.997-1.176-0.997-1.946V51.521c0-1.334,1.086-2.42,2.42-2.42   s2.42,1.086,2.42,2.42v6.555c0,0.828,0.672,1.5,1.5,1.5h6.502c0.828,0,1.5-0.672,1.5-1.5v-18.22c0-3.202,2.604-5.807,5.807-5.807   s5.807,2.605,5.807,5.807v18.22v7.841v19.146H47.257z M72.933,61.997c0,0.771-0.364,1.479-1.001,1.947   c-0.02,0.015-0.06,0.047-0.097,0.078c-0.03,0.017-0.062,0.031-0.094,0.047l-0.083,0.044c-0.079,0.037-0.154,0.079-0.199,0.113   c-0.113,0.047-0.236,0.075-0.365,0.107c-0.051,0.013-0.101,0.028-0.156,0.047c-0.132,0.024-0.274,0.036-0.424,0.036H61.87v-4.841   h4.723c0.828,0,1.5-0.672,1.5-1.5v-3.902v-2.652c0-1.334,1.086-2.42,2.421-2.42c1.334,0,2.419,1.086,2.419,2.42v3.48v0.002V61.997z   "></path><path d="M41.413,23.802c0.27,0.508,0.789,0.798,1.326,0.798c0.237,0,0.478-0.057,0.701-0.175c0.732-0.388,1.011-1.296,0.623-2.028   l-4.42-8.339c-0.388-0.731-1.297-1.009-2.027-0.623c-0.732,0.388-1.011,1.296-0.623,2.028L41.413,23.802z"></path><path d="M35.267,32.523c0.279,0.229,0.616,0.34,0.95,0.34c0.435,0,0.864-0.188,1.161-0.549c0.525-0.641,0.432-1.586-0.209-2.111   l-6.389-5.235c-0.643-0.526-1.586-0.431-2.111,0.209c-0.525,0.641-0.432,1.586,0.209,2.111L35.267,32.523z"></path><path d="M60.88,23.761c0.255,0.17,0.544,0.251,0.83,0.251c0.484,0,0.961-0.235,1.249-0.668l5.14-7.717   c0.46-0.689,0.272-1.621-0.417-2.08c-0.687-0.459-1.621-0.273-2.079,0.417l-5.14,7.717C60.003,22.37,60.19,23.301,60.88,23.761z"></path><path d="M67.98,29.923c0.297,0.349,0.72,0.529,1.145,0.529c0.343,0,0.688-0.117,0.971-0.357l6.646-5.646   c0.631-0.537,0.708-1.483,0.172-2.114c-0.536-0.631-1.482-0.708-2.115-0.172l-6.646,5.646   C67.521,28.345,67.444,29.292,67.98,29.923z"></path><path d="M52.548,21.657c0.012,0,0.023,0,0.035,0c0.812,0,1.48-0.649,1.499-1.466l0.121-5.362c0.019-0.828-0.638-1.515-1.466-1.533   c-0.815-0.03-1.516,0.637-1.534,1.466l-0.121,5.362C51.063,20.952,51.72,21.638,52.548,21.657z"></path></g></g></svg><svg id="name" viewBox="0 0 138.763671875 34.94921875" width="138" height="34.75687924894788" x="0" y="62" data-v-8d8ae3dd="" style="fill: rgb(112, 38, 38);"><rect x="0" y="0" width="100%" height="100%" fill="none" data-v-8d8ae3dd=""></rect><g data-v-8d8ae3dd=""><path xmlns="http://www.w3.org/2000/svg" d="M18.64 34.50L10.24 21.38L6.74 25.16L6.74 34.50L0 34.50L0 1.80L6.74 1.80L6.74 16.62L9.70 12.56L18.04 1.80L26.32 1.80L14.71 16.33L26.66 34.50L18.64 34.50ZM49.41 34.50L42.86 34.50Q42.41 33.62 42.20 32.32L42.20 32.32Q39.85 34.95 36.07 34.95L36.07 34.95Q32.50 34.95 30.15 32.88Q27.81 30.82 27.81 27.67L27.81 27.67Q27.81 23.81 30.67 21.74Q33.53 19.68 38.95 19.65L38.95 19.65L41.93 19.65L41.93 18.26Q41.93 16.58 41.07 15.57Q40.21 14.55 38.34 14.55L38.34 14.55Q36.70 14.55 35.77 15.34Q34.84 16.13 34.84 17.50L34.84 17.50L28.35 17.50Q28.35 15.39 29.65 13.59Q30.95 11.79 33.33 10.77Q35.71 9.75 38.68 9.75L38.68 9.75Q43.17 9.75 45.81 12.01Q48.45 14.26 48.45 18.35L48.45 18.35L48.45 28.88Q48.47 32.34 49.41 34.12L49.41 34.12L49.41 34.50ZM37.49 29.99L37.49 29.99Q38.92 29.99 40.14 29.35Q41.35 28.71 41.93 27.63L41.93 27.63L41.93 23.45L39.51 23.45Q34.63 23.45 34.32 26.82L34.32 26.82L34.30 27.20Q34.30 28.41 35.15 29.20Q36.00 29.99 37.49 29.99ZM68.51 34.50L62.26 24.75L59.93 27.09L59.93 34.50L53.43 34.50L53.43 0L59.93 0L59.93 19.11L61.18 17.50L67.41 10.20L75.20 10.20L66.42 20.33L75.96 34.50L68.51 34.50ZM79.29 4.22L85.78 4.22L85.78 10.20L89.93 10.20L89.93 14.96L85.78 14.96L85.78 27.09Q85.78 28.44 86.29 29.02Q86.81 29.60 88.27 29.60L88.27 29.60Q89.35 29.60 90.18 29.45L90.18 29.45L90.18 34.37Q88.27 34.95 86.25 34.95L86.25 34.95Q79.42 34.95 79.29 28.05L79.29 28.05L79.29 14.96L75.74 14.96L75.74 10.20L79.29 10.20L79.29 4.22ZM108.28 34.50L108.10 32.03Q105.70 34.95 101.46 34.95L101.46 34.95Q97.55 34.95 95.49 32.70Q93.44 30.46 93.39 26.12L93.39 26.12L93.39 10.20L99.88 10.20L99.88 25.90Q99.88 29.69 103.34 29.69L103.34 29.69Q106.64 29.69 107.88 27.40L107.88 27.40L107.88 10.20L114.39 10.20L114.39 34.50L108.28 34.50ZM132.45 27.78L132.45 27.78Q132.45 26.59 131.27 25.91Q130.09 25.22 127.49 24.68L127.49 24.68Q118.82 22.87 118.82 17.32L118.82 17.32Q118.82 14.08 121.50 11.92Q124.19 9.75 128.52 9.75L128.52 9.75Q133.15 9.75 135.92 11.93Q138.70 14.11 138.70 17.59L138.70 17.59L132.21 17.59Q132.21 16.19 131.31 15.28Q130.41 14.38 128.50 14.38L128.50 14.38Q126.86 14.38 125.96 15.12Q125.06 15.86 125.06 17.00L125.06 17.00Q125.06 18.08 126.08 18.74Q127.11 19.41 129.53 19.89Q131.96 20.37 133.62 20.98L133.62 20.98Q138.76 22.87 138.76 27.51L138.76 27.51Q138.76 30.84 135.91 32.89Q133.06 34.95 128.54 34.95L128.54 34.95Q125.49 34.95 123.12 33.86Q120.75 32.77 119.40 30.87Q118.05 28.97 118.05 26.77L118.05 26.77L124.21 26.77Q124.30 28.50 125.49 29.42Q126.68 30.34 128.68 30.34L128.68 30.34Q130.54 30.34 131.50 29.64Q132.45 28.93 132.45 27.78Z"></path></g></svg><!----></svg>